<?xml version="1.0" encoding="UTF-8"?>
<!DOCTYPE svg PUBLIC "-//W3C//DTD SVG 1.1//EN" "http://www.w3.org/Graphics/SVG/1.1/DTD/svg11.dtd">
<!-- Creator: CorelDRAW -->
<svg xmlns="http://www.w3.org/2000/svg" xml:space="preserve" width="1.99999in" height="1.99999in" version="1.1" style="shape-rendering:geometricPrecision; text-rendering:geometricPrecision; image-rendering:optimizeQuality; fill-rule:evenodd; clip-rule:evenodd"
viewBox="0 0 2000 2000"
 xmlns:xlink="http://www.w3.org/1999/xlink">
 <defs>
  <style type="text/css">
   <![CDATA[
    .fil0 {fill:black}
   ]]>
  </style>
 </defs>
 <g id="Layer_x0020_1">
  <metadata id="CorelCorpID_0Corel-Layer"/>
  <path class="fil0" d="M1373 1853l-746 0c-78,0 -142,-63 -142,-141l0 -1424c0,-78 64,-141 142,-141l746 0c78,0 142,63 142,141l0 1424c-1,78 -64,141 -142,141zm122 -247c11,0 20,-9 20,-20l0 -1144c0,-11 -9,-20 -20,-20l-990 0c-11,0 -20,9 -20,20l0 1144c0,11 9,20 20,20l990 0zm-1010 -40l0 -1104 1030 0 0 1104 -1030 0zm573 -357c7,0 14,-3 17,-10l109 -189c6,-10 3,-22 -7,-27 -9,-6 -22,-3 -27,7l-110 189c-5,10 -2,22 8,28 3,1 6,2 10,2zm73 -428c5,-9 2,-22 -8,-27 -9,-6 -21,-2 -27,7l-280 486c-6,10 -3,22 7,28 3,1 6,2 10,2 7,0 14,-4 17,-10l281 -486zm-380 939c11,0 20,-9 20,-20 0,-11 -9,-20 -20,-20l-36 0c-11,0 -20,9 -20,20 0,11 9,20 20,20l36 0zm534 0c11,0 20,-9 20,-20 0,-11 -9,-20 -20,-20l-36 0c-11,0 -20,9 -20,20 0,11 9,20 20,20l36 0zm-183 0c11,0 20,-9 20,-20 0,-11 -9,-20 -20,-20l-204 0c-11,0 -20,9 -20,20 0,11 9,20 20,20l204 0zm-378 -1363c23,0 42,-19 42,-42 0,-24 -19,-43 -42,-43 -24,0 -43,19 -43,43 0,23 19,42 43,42zm378 -22c11,0 20,-9 20,-20 0,-12 -9,-20 -20,-20l-204 0c-11,0 -20,8 -20,20 0,11 9,20 20,20l204 0z"/>
 </g>
</svg>
