<?xml version="1.0" encoding="utf-8"?>
<!-- Generator: Adobe Illustrator 23.0.3, SVG Export Plug-In . SVG Version: 6.00 Build 0)  -->
<svg version="1.1" id="Layer_1" xmlns="http://www.w3.org/2000/svg" xmlns:xlink="http://www.w3.org/1999/xlink" x="0px" y="0px"
	 viewBox="0 0 69.6 69.6" style="enable-background:new 0 0 69.6 69.6;" xml:space="preserve">
<style type="text/css">
	.st0{fill:#28B0EE;}
	.st1{fill:#00A25F;}
	.st2{fill:#BBAA7C;}
	.st3{fill:#010101;}
	.st4{fill:#020202;}
	.st5{fill:#3ACE01;}
	.st6{fill:#040404;}
	.st7{fill:#050505;}
	.st8{fill:#00B3F6;}
	.st9{fill:#0456B8;}
	.st10{fill:#0354BD;}
	.st11{fill:#9FDA55;}
	.st12{fill:#FFAA0C;}
	.st13{fill:#E81D52;}
	.st14{fill:#FF563B;}
	.st15{fill:#F50028;}
	.st16{fill:#FFA116;}
	.st17{fill:url(#SVGID_1_);}
	.st18{fill:url(#SVGID_2_);}
	.st19{fill:url(#SVGID_3_);}
	.st20{fill:url(#SVGID_4_);}
	.st21{fill:url(#SVGID_5_);}
	.st22{fill:url(#SVGID_6_);}
	.st23{fill:url(#SVGID_7_);}
	.st24{fill:url(#SVGID_8_);}
	.st25{fill:url(#SVGID_9_);}
</style>
<linearGradient id="SVGID_1_" gradientUnits="userSpaceOnUse" x1="2.5138" y1="35.0319" x2="68.2271" y2="35.0319">
	<stop  offset="0" style="stop-color:#FEB10E"/>
	<stop  offset="1" style="stop-color:#EF1556"/>
</linearGradient>
<path class="st17" d="M57.2,17.5c-0.1,2.2-2.1,4.2-4.3,4.2c-2.2-0.1-4.2-2.1-4.2-4.3c0.1-2.2,2.1-4.2,4.3-4.2
	C55.3,13.3,57.3,15.3,57.2,17.5z M52.3,35.3c-0.2,9.2-7.9,16.7-17,16.7c-9.3-0.1-17-7.9-16.8-17.1c0.2-9.2,7.9-16.7,17-16.7
	C44.8,18.2,52.5,26.1,52.3,35.3z M46.5,35c-0.1-6.1-5.2-11.1-11.2-11c-6.1,0.1-11.1,5.2-11,11.2c0.1,6.1,5.2,11.1,11.2,11
	C41.5,46,46.5,41,46.5,35z M68.2,49.1c-0.1,11-7.8,18.6-18.8,18.7c-4.7,0-9.4,0-14.1,0c-4.6,0-9.2,0-13.8,0
	C10.4,67.8,2.6,60.1,2.6,49c-0.1-9.3-0.1-18.6,0-27.9C2.6,10,10.4,2.3,21.5,2.2c9.3-0.1,18.6-0.1,27.9,0c11,0.1,18.7,7.8,18.8,18.7
	C68.2,30.3,68.2,39.7,68.2,49.1z M62.4,35.2c0-4.7,0.1-9.4,0-14.1c-0.2-7.9-5.1-13-13-13.1C40,7.9,30.6,7.9,21.2,8
	C13.5,8.2,8.5,13.1,8.4,20.8c-0.2,9.5-0.2,19,0,28.4c0.1,7.7,5.1,12.7,12.7,12.8c9.5,0.2,19,0.2,28.4,0c7.9-0.1,12.7-5.3,12.9-13.2
	C62.5,44.3,62.4,39.8,62.4,35.2z"/>
</svg>
