<?xml version="1.0" encoding="utf-8"?>
<!-- Generator: Adobe Illustrator 25.4.1, SVG Export Plug-In . SVG Version: 6.00 Build 0)  -->
<svg version="1.1" id="Layer_1" xmlns="http://www.w3.org/2000/svg" xmlns:xlink="http://www.w3.org/1999/xlink" x="0px" y="0px"
	 viewBox="0 0 853.7 152.3" style="enable-background:new 0 0 853.7 152.3;" xml:space="preserve">
<style type="text/css">
	.st0{fill:#FFFFFF;}
</style>
<g>
	<path class="st0" d="M11.9,103.4c-0.4-0.7-0.6-1.5-0.6-2.3c0-0.7,0.1-1.3,0.4-1.9c0.2-0.6,0.6-1.2,1-1.7s1-0.9,1.6-1.2
		c0.7-0.3,1.3-0.4,2-0.4c1.1,0,2.1,0.3,3.1,0.9c0.1,0,0.4,0.2,1.1,0.6c0.6,0.4,1.1,0.6,1.3,0.7c0.2,0.1,0.7,0.3,1.4,0.7
		c0.7,0.3,1.2,0.6,1.6,0.7c0.4,0.2,1,0.4,1.7,0.6s1.3,0.5,2,0.6c0.6,0.1,1.3,0.3,2,0.4c0.8,0.2,1.5,0.3,2.4,0.3
		c0.8,0.1,1.6,0.1,2.4,0.1c1.5,0,2.9-0.1,4.2-0.3c1.3-0.2,2.5-0.6,3.7-1.1s2.1-1.2,2.8-2.2c0.7-1,1-2.1,1-3.3c0-1.4-0.6-2.6-1.9-3.7
		s-3.2-2-5.7-2.6L30.7,86c-2.1-0.6-3.8-1.1-5.1-1.5c-1.3-0.4-2.8-0.9-4.3-1.5s-2.7-1.2-3.7-1.8c-0.9-0.6-1.9-1.3-2.8-2.2
		c-0.9-0.9-1.6-1.8-2.1-2.8s-0.9-2.1-1.2-3.5c-0.3-1.3-0.5-2.8-0.5-4.4c0-2.6,0.6-5,1.7-7.1s2.8-3.9,4.9-5.3
		c2.1-1.4,4.6-2.5,7.4-3.2c2.9-0.7,6.1-1.1,9.5-1.1c6.5,0,12.8,1.4,18.9,4.3c1.2,0.5,2,1.3,2.6,2.2s0.8,1.9,0.8,2.9
		c0,1.3-0.4,2.4-1.3,3.3c-0.9,1-2,1.4-3.4,1.4c-0.4,0-0.8,0-1.2-0.1c-0.4-0.1-0.8-0.2-1.3-0.4c-0.1,0-0.3-0.1-0.6-0.2
		c-5.4-1.9-10.1-2.8-13.9-2.8c-1.7,0-3.2,0.2-4.6,0.5s-2.6,0.9-3.7,1.7c-1,0.8-1.5,1.9-1.5,3.1c0,1.7,0.5,3,1.6,3.8s3.1,1.6,5.9,2.3
		l8.6,2.2c3.2,0.8,5.9,1.7,8.1,2.6c2.2,1,4.1,2.1,5.8,3.5c1.7,1.4,2.9,3,3.6,4.9c0.8,1.9,1.2,4.1,1.2,6.6c0,4-1,7.5-3.1,10.3
		s-4.9,4.9-8.4,6.3c-3.5,1.3-7.6,2-12.1,2c-9,0-16.8-2.3-23.3-6.9C12.8,104.8,12.3,104.2,11.9,103.4z"/>
	<path class="st0" d="M73.6,38.9c-1.7-1.6-2.5-3.6-2.5-6.1s0.8-4.6,2.5-6.1c1.7-1.6,3.9-2.4,6.7-2.4c2.7,0,4.9,0.8,6.6,2.4
		s2.5,3.6,2.5,6.1s-0.8,4.6-2.5,6.1c-1.7,1.6-3.9,2.3-6.7,2.3C77.5,41.2,75.3,40.4,73.6,38.9z M74.2,108.9c-1.4-1.6-2.1-4-2.1-7.2
		V62.5c0-3.1,0.7-5.5,2.1-7.1s3.3-2.5,5.9-2.5s4.7,0.8,6.1,2.5c1.5,1.6,2.2,4,2.2,7.1v39.2c0,3.1-0.7,5.5-2.1,7.1s-3.4,2.5-6,2.5
		C77.6,111.3,75.6,110.5,74.2,108.9z"/>
	<path class="st0" d="M144.8,101.7c-1.5,3.3-3.7,5.7-6.6,7.3c-3,1.6-6.4,2.4-10.3,2.4c-4.2,0-7.9-0.7-11.4-2
		c-3.4-1.3-6.4-3.2-8.9-5.6s-4.4-5.5-5.7-9.1c-1.4-3.7-2-7.7-2-12.2c0-4.4,0.6-8.5,1.9-12.2c1.2-3.7,3-6.9,5.3-9.6
		c2.3-2.7,5.1-4.8,8.6-6.3c3.4-1.5,7.2-2.2,11.5-2.2c2.4,0,4.6,0.2,6.6,0.7c1.9,0.5,3.6,1.2,5,2.1s2.6,2,3.6,3.1s1.9,2.5,2.8,4V60
		c0.1-2.3,0.9-4.1,2.2-5.3c1.4-1.2,3.1-1.8,5.3-1.8c2.5,0,4.4,0.8,5.7,2.5c1.3,1.7,2,4.1,2,7.3v44.8c0,9.4-2.7,16.7-8,21.9
		c-5.3,5.1-12.8,7.7-22.5,7.7c-4,0-7.8-0.4-11.6-1.1c-3.8-0.8-6.7-1.7-8.8-2.8c-2.3-1.2-3.4-2.9-3.4-5.1c0-1.4,0.5-2.7,1.5-3.8
		c1-1.1,2.3-1.6,3.8-1.6c0.1,0,0.2,0,0.3,0c0.1,0,0.2,0,0.3,0c0.1,0,0.2,0,0.3,0c0.1,0,0.2,0,0.3,0.1c0.1,0,0.2,0,0.3,0.1
		c0.1,0,0.2,0.1,0.3,0.1c0.2,0.1,1,0.3,2.4,0.8c1.4,0.4,2.4,0.7,2.9,0.9c0.6,0.2,1.4,0.4,2.6,0.7c1.2,0.3,2.3,0.5,3.4,0.6
		s2.2,0.2,3.3,0.2c1.3,0,2.5-0.1,3.7-0.2c1.1-0.1,2.2-0.4,3.3-0.6c1.1-0.3,2-0.7,2.9-1.1s1.7-1,2.4-1.6c0.7-0.6,1.4-1.3,1.9-2.2
		c0.5-0.8,1-1.8,1.4-2.8s0.7-2.2,0.8-3.5c0.2-1.3,0.3-2.7,0.3-4.1v-8.4H144.8z M141,96.2c2.5-3,3.8-7.7,3.8-14.1
		c0-6.2-1.1-11.1-3.2-14.5s-5.7-5.1-10.7-5.1c-2.6,0-4.8,0.5-6.7,1.5c-1.9,1-3.3,2.5-4.4,4.3c-1,1.8-1.8,3.9-2.3,6.1
		c-0.5,2.3-0.8,4.8-0.8,7.5c0,6.2,1.3,10.8,3.9,14s6,4.8,10.3,4.8C135.1,100.8,138.5,99.2,141,96.2z"/>
	<path class="st0" d="M174.9,108.9c-1.4-1.6-2-4-2-7V61.2c0-2.7,0.7-4.8,2.2-6.2c1.4-1.4,3.5-2.1,6.1-2.1c2.5,0,4.5,0.7,5.9,2.1
		c1.4,1.4,2.1,3.4,2.1,6.1v1.4c3.5-7,10.1-10.5,19.7-10.5c5.9,0,10.7,1.9,14.5,5.8s5.7,9.4,5.7,16.6v27.5c0,3.1-0.7,5.4-2.2,7
		c-1.4,1.6-3.5,2.4-6.2,2.4c-2.5,0-4.5-0.8-5.8-2.4c-1.4-1.6-2-4-2-7V74.4c0-3.8-1-6.7-2.9-8.8c-2-2-4.5-3.1-7.5-3.1
		c-3.6,0-6.8,1.4-9.4,4.3s-3.9,6.6-3.9,11.1v23.8c0,3.1-0.7,5.4-2.2,7c-1.4,1.6-3.5,2.4-6.2,2.4
		C178.2,111.3,176.2,110.5,174.9,108.9z"/>
	<path class="st0" d="M240.7,88.5c0.6-1.9,1.6-3.6,2.9-4.9c1.4-1.4,3-2.5,4.8-3.3c1.8-0.9,4.2-1.5,7.2-2c2.9-0.5,6-0.8,9.3-1
		s7.2-0.3,11.9-0.3v-4.2c0-6.7-3.3-10-9.9-10c-2.1,0-4.4,0.3-6.8,0.8c-2.4,0.5-4.2,1-5.4,1.4s-2.7,1-4.7,1.8
		c-0.2,0.1-0.4,0.1-0.6,0.2c-0.2,0.1-0.4,0.1-0.6,0.1c-0.2,0-0.4,0-0.6,0c-1.4,0-2.7-0.6-3.7-1.9c-1-1.2-1.5-2.6-1.5-4.1
		c0-1,0.2-1.9,0.7-2.6c0.5-0.8,1.2-1.4,2.2-1.9c6.4-3.1,13.7-4.6,21.8-4.6c3.7,0,7,0.4,9.9,1.2s5.5,2.1,7.7,3.9
		c2.2,1.8,3.9,4.2,5.1,7.2c1.2,3,1.8,6.7,1.8,10.9v28c0,2.6-0.7,4.6-2.2,6s-3.2,2.1-5.2,2.1c-1.3,0-2.5-0.3-3.7-0.9
		c-2.6-1.4-3.8-3.8-3.8-7.2v-1.6c-1.3,3.4-3.5,6-6.6,7.7c-3.1,1.8-6.7,2.7-10.9,2.7c-5.8,0-10.6-1.5-14.3-4.5s-5.6-7-5.6-12.2
		C239.8,92.7,240.1,90.5,240.7,88.5z M267.5,101.3c1.7-0.8,3.2-1.8,4.6-3.1c1.4-1.3,2.5-3,3.3-5s1.3-4.1,1.3-6.4v-1.9
		c-2.5,0-4.6,0-6.3,0.1c-1.7,0-3.4,0.1-5.1,0.3c-1.7,0.2-3.1,0.4-4.2,0.6c-1.1,0.3-2.1,0.6-3.1,1.1c-1,0.4-1.7,1-2.2,1.7
		s-0.9,1.4-1.2,2.4c-0.3,0.9-0.4,2-0.4,3.2c0,2.6,0.7,4.6,2.2,6.1s3.5,2.2,6.1,2.2C264.1,102.4,265.9,102,267.5,101.3z"/>
	<path class="st0" d="M311.9,106.9c-3.1-3.3-4.6-8.2-4.6-14.9V63.8h-4.8c-3.8,0-5.7-1.9-5.7-5.6c0-1.6,0.5-2.9,1.4-3.8
		c0.9-0.9,2.3-1.4,4.2-1.4h5.6l1.6-13.5c0.6-5.6,3.2-8.4,7.9-8.4c4.1,0,6.2,2.8,6.2,8.4V53h8.4c3.6,0,5.5,1.8,5.5,5.5
		c0,3.5-1.9,5.3-5.6,5.3h-8.3v24.5c0,4.1,0.5,7.1,1.5,8.9s2.7,2.8,5.3,2.8c0.2,0,0.5,0,0.7,0l3.8-0.2c0.1,0,0.2,0,0.3,0
		c1.6,0,2.8,0.6,3.7,1.7s1.3,2.4,1.3,4c0,0.9-0.1,1.7-0.4,2.4c-0.3,0.7-0.7,1.2-1.1,1.7c-0.4,0.4-1,0.8-1.8,1.1
		c-0.8,0.3-1.5,0.6-2.2,0.7c-0.7,0.2-1.6,0.3-2.7,0.4c-1.1,0.1-2.1,0.1-2.9,0.1c-0.8,0-1.9,0-3.2,0c-0.1,0-0.3,0-0.4,0
		c-0.2,0-0.3,0-0.4,0c-0.1,0-0.3,0-0.4,0C319.2,111.9,314.9,110.2,311.9,106.9z"/>
	<path class="st0" d="M355.2,106.2c-4-3.9-6-9.4-6-16.5V62.4c0-3.1,0.7-5.4,2.2-7c1.4-1.6,3.5-2.4,6.2-2.4c2.5,0,4.5,0.8,5.8,2.4
		s2,4,2,7v27.2c0,3.8,1,6.8,2.9,8.8s4.4,3,7.5,3c3.7,0,6.8-1.4,9.5-4.3c2.6-2.9,3.9-6.6,3.9-11.1V62.4c0-3.1,0.7-5.4,2.2-7
		c1.4-1.6,3.5-2.4,6.1-2.4s4.5,0.8,5.9,2.4s2,4,2,7v40.7c0,2.7-0.7,4.8-2.2,6.2c-1.4,1.4-3.5,2.1-6.1,2.1c-2.5,0-4.5-0.7-5.9-2.1
		s-2.1-3.4-2.1-6.1v-1.7c-3.4,7.1-9.8,10.6-19.2,10.6C364.1,112,359.1,110.1,355.2,106.2z"/>
	<path class="st0" d="M422.2,108.9c-1.4-1.6-2.1-4-2.1-7V60.6c0-2.4,0.8-4.3,2.4-5.7c1.6-1.3,3.5-2,5.6-2c2.2,0,4.1,0.7,5.8,2
		c1.6,1.3,2.4,3.2,2.4,5.5l-0.1,4.7c1.1-3.4,3-6.4,5.8-8.9s5.9-3.8,9.5-3.8c2.1,0,3.6,0.6,4.7,1.9s1.7,2.8,1.7,4.6s-0.5,3.4-1.6,4.7
		c-1.1,1.4-2.5,2-4.3,2c-2.1,0-4.1,0.2-5.8,0.6c-1.8,0.4-3.4,1.1-5,2.1s-2.8,2.3-3.6,4.1c-0.9,1.8-1.3,4-1.3,6.5V102
		c0,3-0.7,5.3-2.1,6.9c-1.4,1.6-3.4,2.3-6.1,2.3C425.6,111.3,423.6,110.5,422.2,108.9z"/>
	<path class="st0" d="M472.1,104c-5.6-5.3-8.5-12.8-8.5-22.4c0-5.4,1.2-10.4,3.5-14.8c2.3-4.5,5.8-8,10.3-10.7s9.8-4,15.7-4
		c4.6,0,8.7,0.8,12.2,2.3s6.3,3.6,8.4,6.2c2.1,2.6,3.7,5.6,4.7,8.9c1.1,3.3,1.6,6.9,1.7,10.8c0,1.6-0.4,2.8-1.3,3.7
		c-0.8,0.9-2,1.3-3.6,1.3h-35.5c0.5,10.4,5.9,15.7,16.1,15.7c5,0,10.1-1.9,15.1-5.8c0.7-0.6,1.5-0.9,2.3-0.9c0.7,0,1.3,0.2,2,0.5
		c0.6,0.3,1.2,0.8,1.7,1.3s0.8,1.2,1.1,1.9c0.3,0.7,0.4,1.4,0.4,2.1c0,0.2,0,0.4,0,0.5c0,0.2,0,0.3-0.1,0.5c0,0.2-0.1,0.3-0.1,0.5
		c-0.1,0.2-0.1,0.3-0.2,0.5c-0.1,0.2-0.2,0.3-0.2,0.5c-0.1,0.2-0.2,0.3-0.3,0.5s-0.2,0.3-0.4,0.5c-0.1,0.2-0.3,0.3-0.4,0.4
		c-6.1,5.4-13.6,8.2-22.5,8.2C485.1,112,477.7,109.3,472.1,104z M506.5,76.9c-0.7-9.9-5-14.9-13-14.9c-4.1,0-7.3,1.4-9.7,4.3
		c-2.3,2.9-3.6,6.4-3.9,10.6H506.5z"/>
	<path class="st0" d="M530.3,109.1c-1.7-1.7-2.6-3.8-2.6-6.3c0-2.4,0.8-4.4,2.5-6.1s3.8-2.6,6.4-2.6c2.5,0,4.6,0.8,6.3,2.5
		s2.6,3.7,2.6,6.3c0,2.4-0.9,4.5-2.6,6.2c-1.7,1.7-3.8,2.6-6.4,2.6C534.1,111.6,532,110.8,530.3,109.1z"/>
	<path class="st0" d="M557,104c-5.6-5.3-8.5-12.8-8.5-22.4c0-5.4,1.2-10.4,3.5-14.8c2.3-4.5,5.8-8,10.3-10.7s9.8-4,15.7-4
		c4.6,0,8.7,0.8,12.2,2.3s6.3,3.6,8.4,6.2s3.7,5.6,4.7,8.9c1.1,3.3,1.6,6.9,1.7,10.8c0,1.6-0.4,2.8-1.3,3.7c-0.8,0.9-2,1.3-3.6,1.3
		h-35.5c0.5,10.4,5.9,15.7,16.1,15.7c5,0,10.1-1.9,15.1-5.8c0.7-0.6,1.5-0.9,2.3-0.9c0.7,0,1.3,0.2,2,0.5c0.6,0.3,1.2,0.8,1.7,1.3
		s0.8,1.2,1.1,1.9c0.3,0.7,0.4,1.4,0.4,2.1c0,0.2,0,0.4,0,0.5c0,0.2,0,0.3-0.1,0.5c0,0.2-0.1,0.3-0.1,0.5c-0.1,0.2-0.1,0.3-0.2,0.5
		c-0.1,0.2-0.2,0.3-0.2,0.5c-0.1,0.2-0.2,0.3-0.3,0.5s-0.2,0.3-0.4,0.5c-0.1,0.2-0.3,0.3-0.4,0.4c-6.1,5.4-13.6,8.2-22.5,8.2
		C570.1,112,562.7,109.3,557,104z M591.4,76.9c-0.7-9.9-5-14.9-13-14.9c-4.1,0-7.3,1.4-9.7,4.3c-2.3,2.9-3.6,6.4-3.9,10.6H591.4z"/>
	<path class="st0" d="M618.6,108.9c-1.4-1.6-2-4-2-7V62c0-3,0.7-5.3,2.1-6.8c1.4-1.5,3.4-2.3,5.9-2.3c2.4,0,4.4,0.7,5.9,2
		c1.5,1.4,2.3,3.3,2.3,5.8V63c3.3-7.3,9.6-11,19.1-11c9.9,0,16.1,4.2,18.7,12.7c3.8-8.5,10.8-12.7,21.1-12.7c6.1,0,11,1.9,14.8,5.6
		c3.8,3.7,5.6,9.2,5.6,16.4v27.9c0,3.1-0.7,5.4-2.1,7c-1.4,1.6-3.4,2.4-6.1,2.4c-2.5,0-4.5-0.8-5.9-2.4s-2.1-4-2.1-7V74.4
		c0-3.8-0.9-6.7-2.8-8.8c-1.8-2-4.3-3.1-7.5-3.1c-3.8,0-7,1.4-9.5,4.2c-2.5,2.8-3.8,6.6-3.8,11.5v23.6c0,3.1-0.7,5.4-2.1,7
		c-1.4,1.6-3.4,2.4-6.1,2.4c-2.5,0-4.5-0.8-5.9-2.4s-2.1-4-2.1-7V75.1c0-4.1-0.9-7.2-2.7-9.3c-1.8-2.1-4.3-3.2-7.5-3.2
		c-4,0-7.1,1.3-9.5,3.8s-3.6,6-3.6,10.5v25c0,3.1-0.7,5.4-2.2,7s-3.5,2.4-6.2,2.4C621.9,111.3,620,110.5,618.6,108.9z"/>
	<path class="st0" d="M724.2,88.5c0.6-1.9,1.6-3.6,2.9-4.9c1.4-1.4,3-2.5,4.8-3.3c1.8-0.9,4.2-1.5,7.2-2c2.9-0.5,6-0.8,9.3-1
		s7.2-0.3,11.9-0.3v-4.2c0-6.7-3.3-10-9.9-10c-2.1,0-4.4,0.3-6.8,0.8c-2.4,0.5-4.2,1-5.4,1.4c-1.2,0.4-2.7,1-4.7,1.8
		c-0.2,0.1-0.4,0.1-0.6,0.2s-0.4,0.1-0.6,0.1s-0.4,0-0.6,0c-1.4,0-2.7-0.6-3.7-1.9c-1-1.2-1.5-2.6-1.5-4.1c0-1,0.2-1.9,0.7-2.6
		c0.5-0.8,1.2-1.4,2.2-1.9c6.4-3.1,13.7-4.6,21.8-4.6c3.7,0,7,0.4,9.9,1.2s5.5,2.1,7.7,3.9c2.2,1.8,3.9,4.2,5.1,7.2
		s1.8,6.7,1.8,10.9v28c0,2.6-0.7,4.6-2.2,6s-3.2,2.1-5.2,2.1c-1.3,0-2.5-0.3-3.7-0.9c-2.6-1.4-3.8-3.8-3.8-7.2v-1.6
		c-1.3,3.4-3.5,6-6.6,7.7c-3.1,1.8-6.7,2.7-10.9,2.7c-5.8,0-10.6-1.5-14.3-4.5c-3.7-3-5.6-7-5.6-12.2
		C723.4,92.7,723.7,90.5,724.2,88.5z M751.1,101.3c1.7-0.8,3.2-1.8,4.6-3.1c1.4-1.3,2.5-3,3.3-5s1.3-4.1,1.3-6.4v-1.9
		c-2.5,0-4.6,0-6.3,0.1c-1.7,0-3.4,0.1-5.1,0.3c-1.7,0.2-3.1,0.4-4.2,0.6c-1.1,0.3-2.1,0.6-3.1,1.1c-1,0.4-1.7,1-2.2,1.7
		s-0.9,1.4-1.2,2.4c-0.3,0.9-0.4,2-0.4,3.2c0,2.6,0.7,4.6,2.2,6.1s3.5,2.2,6.1,2.2C747.7,102.4,749.4,102,751.1,101.3z"/>
	<path class="st0" d="M792.5,38.9c-1.7-1.6-2.5-3.6-2.5-6.1s0.8-4.6,2.5-6.1c1.7-1.6,3.9-2.4,6.7-2.4c2.7,0,4.9,0.8,6.6,2.4
		s2.5,3.6,2.5,6.1s-0.8,4.6-2.5,6.1c-1.7,1.6-3.9,2.3-6.7,2.3C796.4,41.2,794.1,40.4,792.5,38.9z M793.1,108.9
		c-1.4-1.6-2.1-4-2.1-7.2V62.5c0-3.1,0.7-5.5,2.1-7.1s3.3-2.5,5.9-2.5s4.7,0.8,6.1,2.5c1.5,1.6,2.2,4,2.2,7.1v39.2
		c0,3.1-0.7,5.5-2.1,7.1s-3.4,2.5-6,2.5C796.5,111.3,794.5,110.5,793.1,108.9z"/>
	<path class="st0" d="M824.4,108.9c-1.4-1.7-2-4-2-7.1v-65c0-3.1,0.7-5.4,2.1-7.1c1.4-1.6,3.3-2.5,5.8-2.5c2.6,0,4.7,0.8,6.1,2.5
		c1.5,1.7,2.2,4,2.2,7.1v65c0,3.1-0.7,5.5-2.2,7.1s-3.5,2.5-6.2,2.5C827.7,111.3,825.7,110.5,824.4,108.9z"/>
</g>
</svg>
